<svg id="Group_7794" data-name="Group 7794" xmlns="http://www.w3.org/2000/svg" width="20" height="20" viewBox="0 0 20 20">
  <g id="Group_6788" data-name="Group 6788" transform="translate(0)">
    <path id="Path_6640" data-name="Path 6640" d="M8.788,352H.778a.778.778,0,0,0-.778.778v4.666a.778.778,0,0,0,.778.778h8.01a.778.778,0,0,0,.778-.778v-4.666A.778.778,0,0,0,8.788,352Zm-.778,4.666H1.555v-3.111H8.01Z" transform="translate(0 -338.222)" fill="#cecdd8"/>
    <path id="Path_6641" data-name="Path 6641" d="M8.788,0H.778A.778.778,0,0,0,0,.778V12.132a.778.778,0,0,0,.778.778h8.01a.778.778,0,0,0,.778-.778V.778A.778.778,0,0,0,8.788,0ZM8.01,11.354H1.555v-9.8H8.01Z" transform="translate(0 0)" fill="#cecdd8"/>
    <path id="Path_6642" data-name="Path 6642" d="M274.788,0h-8.01A.778.778,0,0,0,266,.778V5.444a.778.778,0,0,0,.778.778h8.01a.778.778,0,0,0,.778-.778V.778A.778.778,0,0,0,274.788,0Zm-.778,4.666h-6.455V1.555h6.455Z" transform="translate(-255.566 0)" fill="#cecdd8"/>
    <path id="Path_6643" data-name="Path 6643" d="M274.788,180h-8.01a.778.778,0,0,0-.778.778v11.355a.778.778,0,0,0,.778.778h8.01a.778.778,0,0,0,.778-.778V180.778A.778.778,0,0,0,274.788,180Zm-.778,11.354h-6.455v-9.8h6.455Z" transform="translate(-255.566 -172.91)" fill="#cecdd8"/>
  </g>
</svg>
