<svg xmlns="http://www.w3.org/2000/svg" width="15.839" height="23.181" viewBox="0 0 15.839 23.181"><defs><style>.a{stroke:#13d596;stroke-width:0.25px;}</style></defs><g transform="translate(0.125 0.125)"><path class="a" d="M256.71,400.633a5.16,5.16,0,0,0-.844-.738.673.673,0,0,0-.749,0,5.162,5.162,0,0,0-.844.738,2.994,2.994,0,0,0-.9,1.988,2.04,2.04,0,0,0,2.121,2.187,2.2,2.2,0,0,0,1.378-.458,2.1,2.1,0,0,0,.742-1.729A2.994,2.994,0,0,0,256.71,400.633Zm-1.219,2.833a.727.727,0,0,1-.777-.846,2.1,2.1,0,0,1,.778-1.309,2.078,2.078,0,0,1,.775,1.309A.727.727,0,0,1,255.492,403.466Zm0,0" transform="translate(-242.023 -381.876)"/><path class="a" d="M11.907,17.577a.671.671,0,0,0,.672-.671v-.473a1.977,1.977,0,0,0-3.955,0v4.5a.634.634,0,0,1-1.268,0V14.746a2.552,2.552,0,0,0,1.754-2.035,4.072,4.072,0,0,0,2.838-3.494s0-.005,0-.008c.011-.123.017-.248.017-.374V3.51h.549a.671.671,0,1,0,0-1.341H9.31a2.785,2.785,0,0,0-5.432,0H.672a.67.67,0,1,0,0,1.341h.549V8.836a4.068,4.068,0,0,0,2.856,3.876A2.552,2.552,0,0,0,6.014,14.8V20.93a1.977,1.977,0,0,0,3.955,0v-4.5a.634.634,0,0,1,1.268,0v.473A.671.671,0,0,0,11.907,17.577ZM6.594,1.341a1.443,1.443,0,0,1,1.3.828H5.29A1.443,1.443,0,0,1,6.594,1.341ZM2.564,8.836V3.51h8.059V5.793H8.118a.671.671,0,1,0,0,1.341h2.505V8.476H8.118a.67.67,0,1,0,0,1.341h2.321A2.727,2.727,0,0,1,7.9,11.554H5.288A2.724,2.724,0,0,1,2.564,8.836ZM5.537,12.9H7.651a1.2,1.2,0,0,1-2.114,0Zm0,0"/></g></svg>