<svg xmlns="http://www.w3.org/2000/svg" width="20.555" height="20.56" viewBox="0 0 20.555 20.56">
  <g id="medical-room" transform="translate(0.25 0.25)">
    <g id="Group_6791" data-name="Group 6791">
      <g id="Group_6790" data-name="Group 6790">
        <path id="Path_6644" data-name="Path 6644" d="M18.88,11.205v4.506H17.541a1.958,1.958,0,0,0-1.794-2.743H10.654V1.763A1.765,1.765,0,0,0,8.891,0H1.763A1.765,1.765,0,0,0,0,1.763v18.3H1.175V18.3h8.3v1.763h1.175V16.886H18.88v3.173h1.175V11.205Zm-9.4,5.916h-8.3V4.675a3.28,3.28,0,0,0,2.584-.254,3.185,3.185,0,0,0,3.136,0,3.28,3.28,0,0,0,2.584.254Zm0-13.719A2.086,2.086,0,0,1,7.244,3.25L6.894,2.99l-.351.261a2.025,2.025,0,0,1-2.432,0L3.76,2.99,3.41,3.25A2.086,2.086,0,0,1,1.175,3.4V1.763a.588.588,0,0,1,.588-.588H8.891a.588.588,0,0,1,.588.588Zm6.267,12.309H10.654V14.143h5.092a.784.784,0,0,1,0,1.567Z" fill="#cecdd8" stroke="#d0cfda" stroke-width="0.5"/>
      </g>
    </g>
    <g id="Group_6793" data-name="Group 6793" transform="translate(3.203 6.748)">
      <g id="Group_6792" data-name="Group 6792" transform="translate(0 0)">
        <rect id="Rectangle_405" data-name="Rectangle 405" width="1.053" height="8.603" fill="#cecdd8" stroke="#d0cfda" stroke-width="0.5"/>
      </g>
    </g>
    <g id="Group_6795" data-name="Group 6795" transform="translate(6.444 6.748)">
      <g id="Group_6794" data-name="Group 6794" transform="translate(0 0)">
        <rect id="Rectangle_406" data-name="Rectangle 406" width="0.878" height="8.603" fill="#cecdd8" stroke="#d0cfda" stroke-width="0.5"/>
      </g>
    </g>
  </g>
</svg>
