<svg xmlns="http://www.w3.org/2000/svg" width="24.633" height="35.908" viewBox="0 0 24.633 35.908"><defs><style>.a{fill:#84bdff;stroke:#84bdff;stroke-width:0.5px;}</style></defs><g transform="translate(-81.275 0.25)"><path class="a" d="M103.238,17.606a9.388,9.388,0,0,0-4.065-2.637,6.353,6.353,0,0,0,1.509-4.095V8.834l.367-4.316V4.5a4.1,4.1,0,0,0-1.105-3.115A4.461,4.461,0,0,0,96.682,0H90.83a4.462,4.462,0,0,0-3.263,1.388A4.1,4.1,0,0,0,86.463,4.5v.015l.367,4.316v2.041a6.42,6.42,0,0,0,1.447,4.012,9.4,9.4,0,0,0-6.752,9V34.371a1.037,1.037,0,0,0,1.037,1.037h0l22.058-.02a1.037,1.037,0,0,0,1.036-1.037V23.889a9.352,9.352,0,0,0-2.419-6.284ZM90.828,14.472a4.494,4.494,0,0,1-1.922-3.6V9.827h9.7v1.047a4.368,4.368,0,0,1-1.4,3.169,5,5,0,0,1-6.376.429ZM89.085,2.8a2.349,2.349,0,0,1,1.745-.728h5.852a2.35,2.35,0,0,1,1.745.728,2.049,2.049,0,0,1,.553,1.549l-.289,3.4H88.821l-.289-3.4A2.049,2.049,0,0,1,89.085,2.8Zm14.5,30.512L83.6,33.333V23.889a7.319,7.319,0,0,1,6.729-7.28,7.026,7.026,0,0,0,3.427.885h.06a7.053,7.053,0,0,0,3.322-.857,7.292,7.292,0,0,1,6.445,7.252Z" transform="translate(0 0)"/><path class="a" d="M284.853,313.977h-.876V313.1a.876.876,0,0,0-1.753,0v.874h-.876a.876.876,0,0,0,0,1.753h.876v.874a.876.876,0,1,0,1.753,0v-.874h.876a.876.876,0,0,0,0-1.753Z" transform="translate(-186.168 -289.921)"/><ellipse class="a" cx="0.876" cy="0.875" rx="0.876" ry="0.875" transform="translate(87.836 22.44)"/><ellipse class="a" cx="0.876" cy="0.875" rx="0.876" ry="0.875" transform="translate(87.836 27.491)"/></g></svg>