<svg xmlns="http://www.w3.org/2000/svg" width="14.508" height="21.053" viewBox="0 0 14.508 21.053"><defs><style>.a{fill:#cecdd8;stroke:#cecdd8;stroke-width:0.5px;}</style></defs><g transform="translate(-81.275 0.25)"><path class="a" d="M94.129,10.219a5.449,5.449,0,0,0-2.36-1.531,3.688,3.688,0,0,0,.876-2.377V5.128l.213-2.505V2.614A2.382,2.382,0,0,0,92.217.806,2.589,2.589,0,0,0,90.323,0h-3.4a2.59,2.59,0,0,0-1.894.805,2.382,2.382,0,0,0-.641,1.808v.009L84.6,5.128V6.313a3.727,3.727,0,0,0,.84,2.329,5.459,5.459,0,0,0-3.919,5.225v6.084a.6.6,0,0,0,.6.6h0l12.8-.011a.6.6,0,0,0,.6-.6V13.867a5.429,5.429,0,0,0-1.4-3.647ZM86.925,8.4a2.608,2.608,0,0,1-1.116-2.088V5.7h5.632v.608a2.536,2.536,0,0,1-.815,1.839,2.9,2.9,0,0,1-3.7.249ZM85.913,1.627A1.364,1.364,0,0,1,86.926,1.2h3.4a1.364,1.364,0,0,1,1.013.423,1.19,1.19,0,0,1,.321.9L91.49,4.5H85.76l-.168-1.974a1.189,1.189,0,0,1,.321-.9Zm8.415,17.711-11.6.01V13.867a4.249,4.249,0,0,1,3.906-4.226,4.078,4.078,0,0,0,1.989.514h.035a4.094,4.094,0,0,0,1.928-.5,4.233,4.233,0,0,1,3.741,4.21Z" transform="translate(0 0)"/><path class="a" d="M283.015,313.243h-.509v-.507a.509.509,0,0,0-1.017,0v.507h-.509a.509.509,0,1,0,0,1.017h.509v.507a.509.509,0,1,0,1.017,0v-.507h.509a.509.509,0,0,0,0-1.017Z" transform="translate(-191.529 -299.279)"/><ellipse class="a" cx="0.509" cy="0.508" rx="0.509" ry="0.508" transform="translate(85.188 13.026)"/><ellipse class="a" cx="0.509" cy="0.508" rx="0.509" ry="0.508" transform="translate(85.188 15.958)"/></g></svg>