<svg xmlns="http://www.w3.org/2000/svg" width="19.433" height="19.696" viewBox="0 0 19.433 19.696"><defs><style>.a{fill:none;stroke:#cecdd8;stroke-width:1.5px;}</style></defs><g transform="translate(-3.006 0.75)"><g transform="translate(3.762)"><path class="a" d="M19.433,10.058c0-.274.091-.549.091-.914a2.819,2.819,0,0,0-.091-.914l1.92-1.554a.431.431,0,0,0,.091-.549l-1.829-3.2a.512.512,0,0,0-.549-.091l-2.286.914a8.683,8.683,0,0,0-1.554-.914L14.861.457A.368.368,0,0,0,14.5,0H10.838c-.183,0-.457.183-.457.366l-.366,2.469a6.9,6.9,0,0,0-1.554.914L6.266,2.835a.565.565,0,0,0-.64.183L3.8,6.218c-.091.091,0,.366.183.549L5.9,8.229c0,.274-.091.549-.091.914a2.819,2.819,0,0,0,.091.914L3.98,11.612a.431.431,0,0,0-.091.549l1.829,3.2a.512.512,0,0,0,.549.091l2.286-.914a8.683,8.683,0,0,0,1.554.914l.366,2.377a.418.418,0,0,0,.457.366h3.657c.183,0,.457-.183.457-.366l.366-2.377a8.682,8.682,0,0,0,1.554-.914l2.286.914a.44.44,0,0,0,.549-.183l1.829-3.2c.091-.183.091-.457-.091-.549Zm-6.766,2.286a3.2,3.2,0,1,1,3.2-3.2A3.24,3.24,0,0,1,12.667,12.344Z" transform="translate(-3.762)"/></g></g></svg>